<svg width="250" height="250" xmlns="http://www.w3.org/2000/svg" xmlns:xlink="http://www.w3.org/1999/xlink"><defs><path d="M0 101.4c.77-4.8 1.26-9.67 2.35-14.4 8.97-39.06 32-66.2 69.47-80.13 30.46-11.33 60.34-8.4 88.92 6.93 19.18 10.28 33.54 25.46 43.77 44.64.52.98 1.03 1.97 1.56 2.95.08.14.22.26.56.67 3.34-1.03 6.78-2.22 10.3-3.12 1.26-.33 2.7.05 4.06.1-.08 1.4.2 2.92-.28 4.15-3.44 8.77-7 17.48-10.57 26.2-1.65 4.03-4.49 4.97-8.17 2.66a1641.6 1641.6 0 0 1-23.79-15.2c-1.1-.71-1.75-2.12-2.62-3.21 1.15-.89 2.17-2.09 3.46-2.59 3.34-1.3 6.79-2.28 10.6-3.52-1.67-2.84-3.1-5.64-4.86-8.2-20.44-29.86-48.92-43.81-84.74-41.07-41.55 3.18-75.92 36.6-81.59 77.91-6.35 46.21 21.73 88.99 66.69 101.14 21.63 5.85 42.66 3.58 62.97-5.92a83.54 83.54 0 0 1 13.6-5.15c4.73-1.27 8.56 1.6 9.79 6.4.74 2.93-.47 5.18-2.77 6.63-4.83 3.05-9.62 6.3-14.8 8.66-43.4 19.82-93.06 9.88-125.43-25.31C13.05 165.84 4 145.85.95 123.18c-.3-2.29-.63-4.57-.95-6.85V101.4zm116.96-21.25c0 11.03-.03 22.06.04 33.1a4.17 4.17 0 0 1-1.71 3.67c-15 12.21-29.96 24.48-44.93 36.74-2.36 1.94-4.9 3.1-7.98 1.76-2.55-1.12-4.09-3.03-4.35-5.84-.28-3.05 1.33-5.15 3.56-6.96 7.6-6.19 15.18-12.4 22.77-18.6 5.54-4.54 11.04-9.13 16.65-13.57 1.44-1.14 1.9-2.34 1.89-4.12-.05-19.24-.03-38.49-.03-57.73 0-.86-.03-1.72.03-2.57.31-4.17 3.17-7.02 7-7.03 3.9 0 6.96 3.03 7.03 7.28.1 6.5.03 13 .03 19.5v14.37z" id="a"/></defs><g fill="none" fill-rule="evenodd"><path d="M0 117.4c.77-4.8 1.26-9.67 2.35-14.4 8.97-39.06 32-66.2 69.47-80.13 30.46-11.33 60.34-8.4 88.92 6.93 19.18 10.28 33.54 25.46 43.77 44.64.52.98 1.03 1.97 1.56 2.95.08.14.22.26.56.67 3.34-1.03 6.78-2.22 10.3-3.12 1.26-.33 2.7.05 4.06.1-.08 1.4.2 2.92-.28 4.15-3.44 8.77-7 17.48-10.57 26.2-1.65 4.03-4.49 4.97-8.17 2.66a1641.6 1641.6 0 0 1-23.79-15.2c-1.1-.71-1.75-2.12-2.62-3.21 1.15-.89 2.17-2.09 3.46-2.59 3.34-1.3 6.79-2.28 10.6-3.52-1.67-2.84-3.1-5.64-4.86-8.2-20.44-29.86-48.92-43.81-84.74-41.07-41.55 3.18-75.92 36.6-81.59 77.91-6.35 46.21 21.73 88.99 66.69 101.14 21.63 5.85 42.66 3.58 62.97-5.92a83.54 83.54 0 0 1 13.6-5.15c4.73-1.27 8.56 1.6 9.79 6.4.74 2.93-.47 5.18-2.77 6.63-4.83 3.05-9.62 6.3-14.8 8.66-43.4 19.82-93.06 9.88-125.43-25.31C13.05 181.84 4 161.85.95 139.18c-.3-2.29-.63-4.57-.95-6.85V117.4zm116.96-21.25c0 11.03-.03 22.06.04 33.1a4.17 4.17 0 0 1-1.71 3.67c-15 12.21-29.96 24.48-44.93 36.74-2.36 1.94-4.9 3.1-7.98 1.76-2.55-1.12-4.09-3.03-4.35-5.84-.28-3.05 1.33-5.15 3.56-6.96 7.6-6.19 15.18-12.4 22.77-18.6 5.54-4.54 11.04-9.13 16.65-13.57 1.44-1.14 1.9-2.34 1.89-4.12-.05-19.24-.03-38.49-.03-57.73 0-.86-.03-1.72.03-2.57.31-4.17 3.17-7.02 7-7.03 3.9 0 6.96 3.03 7.03 7.28.1 6.5.03 13 .03 19.5v14.37z" fill="#FF9181"/><path d="M204.45 158.44c3.52 3.3 6.62 6.5 10.03 9.32 4.74 3.92 11.95 3.2 16-1.33a11.97 11.97 0 0 0-.02-16.1c-4.07-4.38-11.53-5.1-16.1-1.26-3.38 2.85-6.45 6.08-9.91 9.37zm-23.55-.1c-3.52-3.29-6.62-6.48-10.03-9.31a11.47 11.47 0 0 0-15.74 1.12c-4.44 4.87-4.5 11.87-.13 16.45 4.22 4.42 11.4 5.03 16.03 1.09 3.37-2.86 6.44-6.08 9.87-9.35zm69.1 3.77c-1.27 4.6-2.65 9.1-5.54 13.06-9.85 13.48-29.57 15.48-41.8 4.12-3.32-3.08-6.59-6.22-10-9.44-3.27 3.1-6.43 6.23-9.73 9.2-12.17 11.01-29.7 10.27-40.52-2.06-7.68-8.76-9.25-19.07-4.71-29.71 4.5-10.56 12.98-16.25 24.52-17.03 8.87-.6 16.19 2.9 22.34 9.02 2.6 2.58 4.9 5.47 7.5 8.4 3.79-3.66 6.79-6.67 9.9-9.57 12.12-11.28 30.47-10.44 41.21 1.9a27.34 27.34 0 0 1 6.33 13.25c.1.57.33 1.12.5 1.67v7.19z" fill="#50CDDD"/><g opacity=".32" transform="translate(0 16)"><mask id="b" fill="#fff"><use xlink:href="#a"/></mask><use fill="#FF9181" xlink:href="#a"/><path d="M0-16h250C195.16 9.44 146.68 43.06 104.55 84.85 62.4 126.65 27.56 175.7 0 232V-16z" fill="#FFF" mask="url(#b)"/></g></g></svg>